<mxfile host="app.diagrams.net" agent="Mozilla/5.0 (Windows NT 10.0; Win64; x64) AppleWebKit/537.36 (KHTML, like Gecko) Chrome/136.0.0.0 Safari/537.36" version="27.0.2">
  <diagram name="Page-1" id="qWaj_lGzpXahy7tZVfa3">
    <mxGraphModel dx="2350" dy="596" grid="1" gridSize="10" guides="1" tooltips="1" connect="1" arrows="1" fold="1" page="1" pageScale="1" pageWidth="850" pageHeight="1100" math="0" shadow="0">
      <root>
        <mxCell id="0" />
        <mxCell id="1" parent="0" />
        <mxCell id="z9A6pVNQ0esQxOItZzgv-1" value="0.16.0.2" style="aspect=fixed;labelBackgroundColor=none;fillColor=#0050ef;strokeColor=#001DBC;fontColor=#ffffff;fontStyle=1;fontFamily=Verdana;whiteSpace=wrap;labelBorderColor=none;textShadow=0;" parent="1" vertex="1">
          <mxGeometry x="130" y="430" width="80" height="80" as="geometry" />
        </mxCell>
        <mxCell id="z9A6pVNQ0esQxOItZzgv-4" value="0.16.0.1" style="rounded=0;strokeColor=#001DBC;fillColor=#0050ef;labelBackgroundColor=none;fontColor=#ffffff;fontStyle=1;fontFamily=Verdana;whiteSpace=wrap;labelBorderColor=none;textShadow=0;" parent="1" vertex="1">
          <mxGeometry x="110" y="300" width="120" height="60" as="geometry" />
        </mxCell>
        <mxCell id="z9A6pVNQ0esQxOItZzgv-9" value="67.81.0.2" style="aspect=fixed;labelBackgroundColor=none;fillColor=#0050ef;strokeColor=#001DBC;fontColor=#ffffff;fontStyle=1;fontFamily=Verdana;whiteSpace=wrap;labelBorderColor=none;textShadow=0;" parent="1" vertex="1">
          <mxGeometry x="560" y="430" width="80" height="80" as="geometry" />
        </mxCell>
        <mxCell id="z9A6pVNQ0esQxOItZzgv-12" value="67.81.0.1" style="rounded=0;labelBackgroundColor=none;fillColor=#0050ef;strokeColor=#001DBC;fontColor=#ffffff;fontStyle=1;fontFamily=Verdana;whiteSpace=wrap;labelBorderColor=none;textShadow=0;" parent="1" vertex="1">
          <mxGeometry x="540" y="300" width="120" height="60" as="geometry" />
        </mxCell>
        <mxCell id="z9A6pVNQ0esQxOItZzgv-13" value="Router 1" style="ellipse;aspect=fixed;labelBackgroundColor=none;fillColor=#0050ef;strokeColor=#001DBC;fontColor=#ffffff;fontStyle=1;fontFamily=Verdana;whiteSpace=wrap;labelBorderColor=none;textShadow=0;" parent="1" vertex="1">
          <mxGeometry x="130" y="150" width="80" height="80" as="geometry" />
        </mxCell>
        <mxCell id="z9A6pVNQ0esQxOItZzgv-14" value="Router 2" style="ellipse;aspect=fixed;labelBackgroundColor=none;fillColor=#0050ef;strokeColor=#001DBC;fontColor=#ffffff;fontStyle=1;fontFamily=Verdana;whiteSpace=wrap;labelBorderColor=none;textShadow=0;" parent="1" vertex="1">
          <mxGeometry x="560" y="150" width="80" height="80" as="geometry" />
        </mxCell>
        <mxCell id="z9A6pVNQ0esQxOItZzgv-21" value="" style="endArrow=none;rounded=0;entryX=0.5;entryY=1;entryDx=0;entryDy=0;exitX=0.5;exitY=0;exitDx=0;exitDy=0;labelBackgroundColor=none;strokeColor=#001DBC;fontColor=default;fillColor=#0050ef;fontStyle=1;fontFamily=Verdana;labelBorderColor=none;textShadow=0;" parent="1" source="z9A6pVNQ0esQxOItZzgv-4" target="z9A6pVNQ0esQxOItZzgv-13" edge="1">
          <mxGeometry width="50" height="50" relative="1" as="geometry">
            <mxPoint x="400" y="350" as="sourcePoint" />
            <mxPoint x="450" y="300" as="targetPoint" />
          </mxGeometry>
        </mxCell>
        <mxCell id="z9A6pVNQ0esQxOItZzgv-24" value="" style="endArrow=none;rounded=0;entryX=0.5;entryY=1;entryDx=0;entryDy=0;exitX=0.5;exitY=0;exitDx=0;exitDy=0;labelBackgroundColor=none;strokeColor=#001DBC;fontColor=default;fillColor=#0050ef;fontStyle=1;fontFamily=Verdana;labelBorderColor=none;textShadow=0;" parent="1" edge="1">
          <mxGeometry width="50" height="50" relative="1" as="geometry">
            <mxPoint x="169.5" y="430" as="sourcePoint" />
            <mxPoint x="169.5" y="360" as="targetPoint" />
          </mxGeometry>
        </mxCell>
        <mxCell id="z9A6pVNQ0esQxOItZzgv-28" value="" style="endArrow=none;rounded=0;entryX=0.5;entryY=1;entryDx=0;entryDy=0;exitX=0.5;exitY=0;exitDx=0;exitDy=0;labelBackgroundColor=none;strokeColor=#001DBC;fontColor=default;fillColor=#0050ef;fontStyle=1;fontFamily=Verdana;labelBorderColor=none;textShadow=0;" parent="1" edge="1">
          <mxGeometry width="50" height="50" relative="1" as="geometry">
            <mxPoint x="599.5" y="300" as="sourcePoint" />
            <mxPoint x="599.5" y="230" as="targetPoint" />
          </mxGeometry>
        </mxCell>
        <mxCell id="z9A6pVNQ0esQxOItZzgv-29" value="" style="endArrow=none;rounded=0;entryX=0;entryY=0.5;entryDx=0;entryDy=0;exitX=1;exitY=0.5;exitDx=0;exitDy=0;labelBackgroundColor=none;strokeColor=#001DBC;fontColor=default;fillColor=#0050ef;fontStyle=1;fontFamily=Verdana;labelBorderColor=none;textShadow=0;" parent="1" source="z9A6pVNQ0esQxOItZzgv-13" target="z9A6pVNQ0esQxOItZzgv-14" edge="1">
          <mxGeometry width="50" height="50" relative="1" as="geometry">
            <mxPoint x="400" y="350" as="sourcePoint" />
            <mxPoint x="450" y="300" as="targetPoint" />
          </mxGeometry>
        </mxCell>
        <mxCell id="z9A6pVNQ0esQxOItZzgv-31" value="&lt;h1&gt;LAN 1: 0.16.0.0&lt;/h1&gt;" style="text;strokeColor=none;align=left;fillColor=none;html=1;verticalAlign=middle;whiteSpace=wrap;rounded=0;fontColor=default;" parent="1" vertex="1">
          <mxGeometry x="80" y="520" width="180" height="70" as="geometry" />
        </mxCell>
        <mxCell id="z9A6pVNQ0esQxOItZzgv-33" value="&lt;h1&gt;LAN 2: 67.81.0.0&lt;/h1&gt;" style="text;strokeColor=none;align=left;fillColor=none;html=1;verticalAlign=middle;whiteSpace=wrap;rounded=0;fontColor=default;" parent="1" vertex="1">
          <mxGeometry x="510" y="515" width="200" height="70" as="geometry" />
        </mxCell>
        <mxCell id="z9A6pVNQ0esQxOItZzgv-34" value="&lt;span style=&quot;font-family: -apple-system, BlinkMacSystemFont, &amp;quot;Segoe UI&amp;quot;, &amp;quot;Noto Sans&amp;quot;, Helvetica, Arial, sans-serif, &amp;quot;Apple Color Emoji&amp;quot;, &amp;quot;Segoe UI Emoji&amp;quot;; font-size: 16px; text-align: start;&quot;&gt;192.168.100.1&lt;/span&gt;" style="text;strokeColor=none;align=center;fillColor=none;html=1;verticalAlign=middle;whiteSpace=wrap;rounded=0;fontColor=light-dark(#EEEEEE, #f4f0f0);" parent="1" vertex="1">
          <mxGeometry x="140" y="110" width="60" height="30" as="geometry" />
        </mxCell>
        <mxCell id="z9A6pVNQ0esQxOItZzgv-35" value="&lt;span style=&quot;font-family: -apple-system, BlinkMacSystemFont, &amp;quot;Segoe UI&amp;quot;, &amp;quot;Noto Sans&amp;quot;, Helvetica, Arial, sans-serif, &amp;quot;Apple Color Emoji&amp;quot;, &amp;quot;Segoe UI Emoji&amp;quot;; font-size: 16px; text-align: start;&quot;&gt;192.168.100.2&lt;/span&gt;" style="text;strokeColor=none;align=center;fillColor=none;html=1;verticalAlign=middle;whiteSpace=wrap;rounded=0;fontColor=light-dark(#EEEEEE, #f4f0f0);" parent="1" vertex="1">
          <mxGeometry x="580" y="110" width="60" height="30" as="geometry" />
        </mxCell>
        <mxCell id="z9A6pVNQ0esQxOItZzgv-36" value="&lt;h1 style=&quot;text-align: start;&quot;&gt;&lt;font face=&quot;-apple-system, BlinkMacSystemFont, Segoe UI, Noto Sans, Helvetica, Arial, sans-serif, Apple Color Emoji, Segoe UI Emoji&quot;&gt;&lt;span style=&quot;font-size: 26px;&quot;&gt;ICMP/IP Packet Diagram&lt;/span&gt;&lt;/font&gt;&lt;/h1&gt;" style="text;strokeColor=none;align=center;fillColor=none;html=1;verticalAlign=middle;whiteSpace=wrap;rounded=0;fontColor=light-dark(#EEEEEE, #f4f0f0);fontStyle=1" parent="1" vertex="1">
          <mxGeometry x="240" y="60" width="310" height="30" as="geometry" />
        </mxCell>
        <mxCell id="z9A6pVNQ0esQxOItZzgv-37" value="Ethernet 1 Gb/s" style="text;strokeColor=none;align=center;fillColor=none;verticalAlign=middle;rounded=0;fontColor=default;html=1;" parent="1" vertex="1">
          <mxGeometry x="330" y="160" width="120" height="30" as="geometry" />
        </mxCell>
        <mxCell id="TZuwReDzWJUc-sn61Xls-1" value="" style="endArrow=none;rounded=0;entryX=0.5;entryY=1;entryDx=0;entryDy=0;exitX=0.5;exitY=0;exitDx=0;exitDy=0;labelBackgroundColor=none;strokeColor=#001DBC;fontColor=default;fillColor=#0050ef;fontStyle=1;fontFamily=Verdana;labelBorderColor=none;textShadow=0;" edge="1" parent="1">
          <mxGeometry width="50" height="50" relative="1" as="geometry">
            <mxPoint x="599.5" y="430" as="sourcePoint" />
            <mxPoint x="599.5" y="360" as="targetPoint" />
          </mxGeometry>
        </mxCell>
        <mxCell id="TZuwReDzWJUc-sn61Xls-2" value="" style="shape=flexArrow;endArrow=classic;html=1;rounded=0;" edge="1" parent="1">
          <mxGeometry width="50" height="50" relative="1" as="geometry">
            <mxPoint x="90" y="300" as="sourcePoint" />
            <mxPoint x="90" y="480" as="targetPoint" />
          </mxGeometry>
        </mxCell>
        <mxCell id="TZuwReDzWJUc-sn61Xls-3" value="" style="shape=flexArrow;endArrow=classic;html=1;rounded=0;" edge="1" parent="1">
          <mxGeometry width="50" height="50" relative="1" as="geometry">
            <mxPoint x="260" y="480" as="sourcePoint" />
            <mxPoint x="260" y="270" as="targetPoint" />
            <Array as="points">
              <mxPoint x="260" y="380" />
            </Array>
          </mxGeometry>
        </mxCell>
        <mxCell id="TZuwReDzWJUc-sn61Xls-4" value="" style="shape=flexArrow;endArrow=classic;html=1;rounded=0;" edge="1" parent="1">
          <mxGeometry width="50" height="50" relative="1" as="geometry">
            <mxPoint x="300" y="225" as="sourcePoint" />
            <mxPoint x="520" y="225" as="targetPoint" />
            <Array as="points" />
          </mxGeometry>
        </mxCell>
        <mxCell id="TZuwReDzWJUc-sn61Xls-5" value="" style="shape=flexArrow;endArrow=classic;html=1;rounded=0;" edge="1" parent="1">
          <mxGeometry width="50" height="50" relative="1" as="geometry">
            <mxPoint x="520" y="290" as="sourcePoint" />
            <mxPoint x="520" y="470" as="targetPoint" />
          </mxGeometry>
        </mxCell>
        <mxCell id="TZuwReDzWJUc-sn61Xls-6" value="" style="shape=flexArrow;endArrow=classic;html=1;rounded=0;" edge="1" parent="1">
          <mxGeometry width="50" height="50" relative="1" as="geometry">
            <mxPoint x="490" y="140" as="sourcePoint" />
            <mxPoint x="270" y="140" as="targetPoint" />
            <Array as="points" />
          </mxGeometry>
        </mxCell>
        <mxCell id="TZuwReDzWJUc-sn61Xls-7" value="" style="shape=flexArrow;endArrow=classic;html=1;rounded=0;" edge="1" parent="1">
          <mxGeometry width="50" height="50" relative="1" as="geometry">
            <mxPoint x="690" y="480" as="sourcePoint" />
            <mxPoint x="690" y="270" as="targetPoint" />
            <Array as="points">
              <mxPoint x="690" y="380" />
            </Array>
          </mxGeometry>
        </mxCell>
        <mxCell id="TZuwReDzWJUc-sn61Xls-8" value="&lt;h1 style=&quot;text-align: start;&quot;&gt;&lt;font face=&quot;-apple-system, BlinkMacSystemFont, Segoe UI, Noto Sans, Helvetica, Arial, sans-serif, Apple Color Emoji, Segoe UI Emoji&quot;&gt;&lt;span style=&quot;font-size: 26px;&quot;&gt;Echo Request&lt;/span&gt;&lt;/font&gt;&lt;/h1&gt;" style="text;strokeColor=none;align=center;fillColor=none;html=1;verticalAlign=middle;whiteSpace=wrap;rounded=0;fontColor=light-dark(#EEEEEE, #f4f0f0);" vertex="1" parent="1">
          <mxGeometry x="270" y="360" width="170" height="30" as="geometry" />
        </mxCell>
        <mxCell id="TZuwReDzWJUc-sn61Xls-9" value="&lt;h1 style=&quot;text-align: start;&quot;&gt;&lt;font face=&quot;-apple-system, BlinkMacSystemFont, Segoe UI, Noto Sans, Helvetica, Arial, sans-serif, Apple Color Emoji, Segoe UI Emoji&quot;&gt;&lt;span style=&quot;font-size: 26px;&quot;&gt;Echo Reply&lt;/span&gt;&lt;/font&gt;&lt;/h1&gt;" style="text;strokeColor=none;align=center;fillColor=none;html=1;verticalAlign=middle;whiteSpace=wrap;rounded=0;fontColor=light-dark(#EEEEEE, #f4f0f0);" vertex="1" parent="1">
          <mxGeometry x="700" y="440" width="140" height="30" as="geometry" />
        </mxCell>
        <mxCell id="TZuwReDzWJUc-sn61Xls-10" value="&lt;h1 style=&quot;&quot;&gt;&lt;font face=&quot;-apple-system, BlinkMacSystemFont, Segoe UI, Noto Sans, Helvetica, Arial, sans-serif, Apple Color Emoji, Segoe UI Emoji&quot;&gt;&lt;span style=&quot;font-size: 26px;&quot;&gt;Echo Request Received&lt;/span&gt;&lt;/font&gt;&lt;/h1&gt;" style="text;strokeColor=none;align=center;fillColor=none;html=1;verticalAlign=middle;whiteSpace=wrap;rounded=0;fontColor=light-dark(#EEEEEE, #f4f0f0);" vertex="1" parent="1">
          <mxGeometry x="380" y="490" width="170" height="30" as="geometry" />
        </mxCell>
        <mxCell id="TZuwReDzWJUc-sn61Xls-11" style="edgeStyle=orthogonalEdgeStyle;rounded=0;orthogonalLoop=1;jettySize=auto;html=1;exitX=0.5;exitY=1;exitDx=0;exitDy=0;" edge="1" parent="1" source="TZuwReDzWJUc-sn61Xls-10" target="TZuwReDzWJUc-sn61Xls-10">
          <mxGeometry relative="1" as="geometry" />
        </mxCell>
        <mxCell id="TZuwReDzWJUc-sn61Xls-12" value="&lt;h1 style=&quot;text-align: start;&quot;&gt;&lt;font face=&quot;-apple-system, BlinkMacSystemFont, Segoe UI, Noto Sans, Helvetica, Arial, sans-serif, Apple Color Emoji, Segoe UI Emoji&quot;&gt;&lt;span style=&quot;font-size: 26px;&quot;&gt;Echo Reply&lt;/span&gt;&lt;/font&gt;&lt;/h1&gt;" style="text;strokeColor=none;align=center;fillColor=none;html=1;verticalAlign=middle;whiteSpace=wrap;rounded=0;fontColor=light-dark(#EEEEEE, #f4f0f0);" vertex="1" parent="1">
          <mxGeometry x="320" y="100" width="140" height="30" as="geometry" />
        </mxCell>
        <mxCell id="TZuwReDzWJUc-sn61Xls-13" value="&lt;h1 style=&quot;&quot;&gt;&lt;font face=&quot;-apple-system, BlinkMacSystemFont, Segoe UI, Noto Sans, Helvetica, Arial, sans-serif, Apple Color Emoji, Segoe UI Emoji&quot;&gt;&lt;span style=&quot;font-size: 26px;&quot;&gt;Echo Reply Received&lt;/span&gt;&lt;/font&gt;&lt;/h1&gt;" style="text;strokeColor=none;align=center;fillColor=none;html=1;verticalAlign=middle;whiteSpace=wrap;rounded=0;fontColor=light-dark(#EEEEEE, #f4f0f0);" vertex="1" parent="1">
          <mxGeometry x="-70" y="485" width="170" height="30" as="geometry" />
        </mxCell>
      </root>
    </mxGraphModel>
  </diagram>
</mxfile>
